# xmcd
# 
# Track frame offsets:
#     150
#     25162
#     39884
#     61306
#     77637
#     90231
#     100225
#     117600
#     137706
#     153433
#     200615
# 
# Disc length: 3327
# 
# Revision: 3
# Processed by: cddbd v1.5.2PL0 Copyright (c) Steve Scherf et al.
# Submitted via: fre:ac v1.0.31
# 
DISCID=860cfd0b
DTITLE=Creedence Clearwater Revival - Live At Woodstock 1969
DYEAR=2019
DGENRE=Rock/Pop
TTITLE0=Born On The Bayou
TTITLE1=Green River
TTITLE2=Ninety-Nine And A Half (Won't Do)
TTITLE3=Bootleg
TTITLE4=Commotion
TTITLE5=Bad Moon Rising
TTITLE6=Proud Mary
TTITLE7=I Put A Spell On You
TTITLE8=The Night Time Is The Right Time
TTITLE9=Keep On Chooglin'
TTITLE10=Suzie Q.
EXTD=
EXTT0=
EXTT1=
EXTT2=
EXTT3=
EXTT4=
EXTT5=
EXTT6=
EXTT7=
EXTT8=
EXTT9=
EXTT10=
PLAYORDER=
